<svg width="600" height="600" xmlns="http://www.w3.org/2000/svg">

 <g>
  <title>background</title>
  <rect fill="none" id="canvas_background" height="402" width="582" y="-1" x="-1"/>
 </g>
 <g>
  <title>Layer 1</title>
  <path id="svg_1" stroke-width="7" stroke="black" fill="#FD9D1A" d="m586.2,342.4c-39.4,-22.2 -64.6,-33.3 -75.7,-33.3c-8.1,0 -14.4,6.2 -18.9,18.6c-4.5,12.4 -13.6,18.5 -27.2,18.5c-5.6,0 -16.9,-2 -34.1,-6c-9.6,14.6 -14.4,24 -14.4,28c0,5.6 4.1,12.1 12.4,19.7c8.3,7.6 15.2,11.3 20.9,11.3c3.6,0 8.5,-0.7 14.7,-2.3c6.2,-1.5 10.3,-2.3 12.4,-2.3c6.2,0 9.3,11.4 9.3,34.1c0,21.7 -5,55 -15.1,99.9c-13.1,-51.5 -27,-77.2 -41.6,-77.2c-2,0 -6.2,1.5 -12.5,4.6c-6.3,3 -11,4.5 -14,4.5c-14.6,0 -27.7,-13.4 -39.4,-40.1c-23.2,3.5 -34.8,15.4 -34.8,35.6c0,10.1 4.7,18.2 14,24.2c9.3,6.1 14,10.4 14,12.9c0,13.6 -19.9,34.6 -59.8,62.8c-21.2,15.1 -35.8,25.7 -43.9,31.8c7,-9.1 14.1,-20.9 21.2,-35.6c8.1,-16.6 12.1,-29.5 12.1,-38.6c0,-5 -5.8,-12.1 -17.4,-21.2c-11.6,-9.1 -17.4,-18.7 -17.4,-28.8c0,-8.6 3,-19.2 9.1,-31.8c-6.6,-7.6 -14.4,-11.4 -23.5,-11.4c-20.2,0 -30.3,6.6 -30.3,19.7c0,-9.1 0,-2.3 0,20.4c0.5,16.7 -12.1,25 -37.9,25c-19.7,0 -52.7,-4.6 -99.2,-13.6c52.5,-13.1 78.7,-28.3 78.7,-45.4c0,2 -1,-4 -3,-18.2c-2,-15.6 9.1,-29.8 33.3,-42.4c-4.5,-23.2 -16.6,-34.8 -36.3,-34.8c-3,0 -8.6,5.3 -16.6,15.9c-8.1,10.6 -15.6,15.9 -22.7,15.9c-12.1,0 -27.8,-13.1 -46.9,-39.4c-9.1,-13.1 -23,-32.5 -41.6,-58.3c11.6,6.1 23.2,12.1 34.8,18.2c15.1,7.1 27.3,10.6 36.3,10.6c7.1,0 14,-6.2 20.8,-18.6c6.8,-12.4 15.8,-18.6 26.9,-18.6c1.5,0 11.6,3 30.3,9.1c9.6,-14.6 14.4,-25.5 14.4,-32.6c0,-6.1 -3.7,-13 -11,-20.8c-7.3,-7.8 -14,-11.7 -20.1,-11.7c-2.5,0 -6.4,0.8 -11.7,2.3c-5.3,1.5 -9.2,2.3 -11.7,2.3c-9.1,0 -13.6,-11.4 -13.6,-34.1c0,-6.1 5.8,-40.6 17.4,-103.7c-0.5,7.6 2.8,21.7 9.8,42.4c8.6,25.2 18.7,37.9 30.3,37.9c2,0 6.1,-1.5 12.1,-4.5c6.1,-3 10.8,-4.5 14.4,-4.5c11.6,0 21.2,6.6 28.8,19.7l11.4,20.4c10.6,0 19.4,-3.8 26.5,-11.3c7.1,-7.6 10.6,-16.7 10.6,-27.3c0,-11.1 40.4,-43.6 20,-5.4c-20.4,38.2 25,18.8 -7,-10.2c0,-10.6 -20.3,-5.5 13,-30.7c26.7,-20.2 -17.8,62 19.2,-22.6c-21.7,29.3 -3.6,-8.3 -3.6,5.3c0,7.1 -13.7,5.1 -18.1,18.7c-4.4,13.6 36.7,33.4 1.2,43.4c-35.5,10 52.5,8.5 46.5,28.7c13.6,9.6 24,14.4 31,14.4c14.6,0 21.9,-7.6 21.9,-22.7c0,-1.5 -0.6,-6.3 -1.9,-14.4c-1.3,-8.1 -1.6,-12.6 -1.1,-13.6c2,-7.1 15.9,-10.6 41.6,-10.6c16.2,0 49.7,4.5 100.7,13.6c-11.1,3 -27.8,7.6 -50,13.6c-20.2,6.1 -30.3,12.9 -30.3,20.4c0,3.5 1.3,9.6 3.8,18.2c2.5,8.6 3.8,14.9 3.8,18.9c0,7.1 -4.5,13.6 -13.6,19.7l-25.7,18.2c6.1,11.1 10.1,17.7 12.1,19.7c5,6.1 11.9,9.1 20.4,9.1c6.1,0 11.6,-5.3 16.7,-15.9c5,-10.6 13.1,-15.9 24.2,-15.9c13.6,0 29,12.6 46.2,37.9c9.6,14.2 24.5,35.6 44.6,64.4m-168,-43.9c0,-32.3 -11.9,-60.3 -35.6,-84c-23.7,-23.7 -51.7,-35.6 -84,-35.6c-32.8,0 -61.1,11.7 -84.8,35.2c-23.7,23.5 -35.8,51.6 -36.3,84.4c-0.5,32.3 11.5,60.2 36,83.6c24.5,23.5 52.9,35.2 85.2,35.2c34.3,0 63,-11.2 85.9,-33.7c23,-22.4 34.2,-50.8 33.7,-85.1m-11.4,0c0,30.8 -10.3,56.3 -31,76.4c-20.7,20.2 -46.4,30.3 -77.2,30.3c-29.8,0 -55.3,-10.3 -76.4,-31c-21.2,-20.7 -31.8,-45.9 -31.8,-75.7c0,-29.3 10.7,-54.4 32.2,-75.3c21.5,-20.9 46.8,-31.4 76.1,-31.4c29.3,0 54.6,10.6 76.1,31.8c21.4,21.2 32.2,46.2 32.2,74.9"/>
  <path stroke="black" id="svg_2" stroke-width="5" fill="#aae0fa" d="m373.371068,369.127139c-20.113546,21.839695 -44.888181,32.7573 -74.321103,32.7573c-33.03238,0 -59.236993,-12.059277 -78.620845,-36.192774c-18.312417,-22.984355 -27.465124,-52.280776 -27.465124,-87.896737c0,-38.299785 15.617726,-81.979174 46.848976,-131.008278c25.476319,-40.20805 55.455461,-75.448933 89.923422,-105.709201c-5.029437,24.517541 -7.533651,41.938489 -7.533651,52.280776c0,23.755431 6.991632,46.923588 20.991702,69.523898c17.235382,26.808356 30.329285,46.742773 39.313924,59.749458c14.00007,22.609276 21.000106,44.628291 21.000106,66.064515c0.0007,31.797937 -10.046269,58.607787 -30.140208,80.432538m7.533651,-89.053352"/>
 </g>
</svg>